:version 1.10
:name ASF
:units
  mass 1
  length 1
  angle deg
:documentation
  ASF file generated by Kaydara
:root
  axis xyz
  order  tx ty tz rx ry rz
  position 0 0 0
  orientation 0 0 0
:bonedata
  begin
    id 1
    name RightUpLegDummy
    direction -1 2.30186e-007 8.31532e-007
    length 4.04083
    axis 0 0 0 xyz
  end
  begin
    id 2
    name RightUpLeg
    direction -0.000919234 -0.999985 0.00544864
    length 17.4221
    axis -3.80308 -0.00076134 -0.0523649 xyz
    dof rx ry rz
  end
  begin
    id 3
    name RightLeg
    direction -0.000919271 -0.999984 -0.00555045
    length 17.1239
    axis 4.00314 0.0181274 -0.183583 xyz
    dof rx ry rz
  end
  begin
    id 4
    name RightFoot
    direction -2.57843e-005 -4.04509e-007 1
    length 6.72091
    axis 8.18909e-005 -0.122003 -0.403008 xyz
    dof rx ry rz
  end
  begin
    id 5
    name RightToes
    direction 0.00116825 -0.014069 0.9999
    length 3.85082
    axis 0.000514414 0.540638 -0.356797 xyz
    dof rx ry rz
  end
  begin
    id 6
    name SpineDummy
    direction 0.0168869 0.966876 -0.254689
    length 6.99894
    axis 0 0 0 xyz
  end
  begin
    id 7
    name Spine
    direction -0.0132008 0.999903 0.00446247
    length 11.1999
    axis -0.00148109 0.00725429 0.756411 xyz
    dof rx ry rz
  end
  begin
    id 8
    name Spine1
    direction 0 0 0
    length 0
    axis -0.000934958 0.0245693 1.46543 xyz
    dof rx ry rz
  end
  begin
    id 9
    name HEadDummy
    direction -0.0255732 0.999672 0.00128215
    length 3.43865
    axis -0.000934958 0.0245693 1.46543 xyz
  end
  begin
    id 10
    name HEad
    direction -0.0472656 0.980052 0.19304
    length 5.12695
    axis -0.000934954 0.0245693 1.46543 xyz
    dof rx ry rz
  end
  begin
    id 11
    name LeftShoulder1Dummy
    direction 0.953098 0.301717 -0.023914
    length 3.68488
    axis -0.000934958 0.0245693 1.46543 xyz
  end
  begin
    id 12
    name LeftShoulder1
    direction 0.962466 0.271167 0.0112566
    length 3.13809
    axis -0.000934958 0.0245693 1.46543 xyz
    dof rx ry rz
  end
  begin
    id 13
    name LeftArm
    direction 0.999943 0.00455037 -0.00961766
    length 11.3419
    axis -23.1648 0.685459 1.22814 xyz
    dof rx ry rz
  end
  begin
    id 14
    name LeftForeArm
    direction 0.999332 0.0131969 0.0340885
    length 8.70632
    axis -9.90633 0.618216 0.0826942 xyz
    dof rx ry rz
  end
  begin
    id 15
    name LeftHand
    direction 0.994373 -0.0366703 0.0993905
    length 5.32135
    axis 0.00675269 0.680415 0.445699 xyz
    dof rx ry rz
  end
  begin
    id 16
    name RightShoulderDummy
    direction -0.967298 0.252589 -0.0230903
    length 3.68488
    axis -0.000934958 0.0245693 1.46543 xyz
  end
  begin
    id 17
    name RightShoulder
    direction -0.975062 0.221602 0.0120823
    length 3.13809
    axis 0.216257 0.0246515 1.45863 xyz
    dof rx ry rz
  end
  begin
    id 18
    name RightArm
    direction -0.99886 -0.00851186 -0.0469687
    length 10.3947
    axis -23.196 0.23503 -0.532632 xyz
    dof rx ry rz
  end
  begin
    id 19
    name RightForeArm
    direction -0.99909 0.00114866 0.0426317
    length 8.68355
    axis -9.91764 -0.134943 0.610517 xyz
    dof rx ry rz
  end
  begin
    id 20
    name RightHand
    direction -0.992888 -0.0489538 0.10852
    length 5.28593
    axis -0.00275396 -0.197403 0.246414 xyz
    dof rx ry rz
  end
  begin
    id 21
    name LeftUpLegDummy
    direction 1 -2.30186e-007 -8.31532e-007
    length 4.04083
    axis 0 0 0 xyz
  end
  begin
    id 22
    name LeftUpLeg
    direction -0.000920097 -1 2.79241e-006
    length 17.4221
    axis -3.48782 0.00143434 -0.0532288 xyz
    dof rx ry rz
  end
  begin
    id 23
    name LeftLeg
    direction -0.000920097 -1 2.7912e-006
    length 17.1239
    axis 3.68162 -0.00806512 -0.0529896 xyz
    dof rx ry rz
  end
  begin
    id 24
    name LeftFoot
    direction -2.57845e-005 -3.987e-007 1
    length 6.72091
    axis 3.02372e-005 -0.00147829 -0.214229 xyz
    dof rx ry rz
  end
  begin
    id 25
    name LeftToes
    direction 0.00813577 -0.00488255 0.999955
    length 3.85048
    axis 3.89895e-005 -0.0014783 -0.214229 xyz
    dof rx ry rz
  end
:hierarchy
  begin
    root RightUpLegDummy SpineDummy LeftUpLegDummy
    RightUpLegDummy RightUpLeg
    RightUpLeg RightLeg
    RightLeg RightFoot
    RightFoot RightToes
    SpineDummy Spine
    Spine Spine1
    Spine1 HEadDummy LeftShoulder1Dummy RightShoulderDummy
    HEadDummy HEad
    LeftShoulder1Dummy LeftShoulder1
    LeftShoulder1 LeftArm
    LeftArm LeftForeArm
    LeftForeArm LeftHand
    RightShoulderDummy RightShoulder
    RightShoulder RightArm
    RightArm RightForeArm
    RightForeArm RightHand
    LeftUpLegDummy LeftUpLeg
    LeftUpLeg LeftLeg
    LeftLeg LeftFoot
    LeftFoot LeftToes
  end

:SAMPLES-PER-SECOND 30
:FULLY-SPECIFIED
:DEGREES
58
root  -15.3741 34.5863 -16.519 -171.076 -0.71405 179.894
RightUpLeg  -9.07731 -14.8817 -0.820412
RightLeg  6.46211 -1.18464 -0.0724732
RightFoot  4.22375 0.00633194 0.0587686
RightToes  -23.8613 -0.111275 -0.199671
Spine  -2.46188 -0.167925 0.241496
Spine1  -5.00215 -0.296745 1.00246
HEad  -47.8173 -6.01292 7.66536
LeftShoulder1  -1.94126e-019 -3.10601e-018 -2.51263e-017
LeftArm  -14.8872 26.6723 -81.6479
LeftForeArm  32.4665 -15.5969 -2.50827
LeftHand  -0.370531 -0.710715 7.0737
RightShoulder  -4.96962e-017 0 -2.36833e-017
RightArm  -39.4005 -24.0697 74.3847
RightForeArm  60.0325 12.1521 1.45343
RightHand  -0.440064 -0.844798 -11.0545
LeftUpLeg  -7.33199 4.18522 2.73181
LeftLeg  6.32527 13.8103 0.63057
LeftFoot  4.54501 -0.0370936 1.20958
LeftToes  -19.8786 1.70063e-006 7.6642e-008
59
root  -15.3677 34.5863 -16.5215 -171.041 -0.654007 179.904
RightUpLeg  -9.11077 -14.8283 -0.795659
RightLeg  6.4482 -1.17788 -0.0727974
RightFoot  4.2266 0.00638221 0.0580503
RightToes  -23.8798 -0.111275 -0.199671
Spine  -2.45575 -0.162525 0.238887
Spine1  -4.99037 -0.281709 0.997647
HEad  -47.4945 -5.91319 7.54117
LeftShoulder1  -1.94126e-019 -3.10601e-018 -2.51263e-017
LeftArm  -14.8888 26.711 -81.6635
LeftForeArm  32.4248 -15.4649 -2.48864
LeftHand  -0.36678 -0.722365 7.23815
RightShoulder  -4.96962e-017 0 -2.36833e-017
RightArm  -39.3287 -23.982 74.4703
RightForeArm  59.942 12.2455 1.44457
RightHand  -0.441096 -0.790848 -10.9999
LeftUpLeg  -7.34766 4.28185 2.74614
LeftLeg  6.31442 13.7774 0.626505
LeftFoot  4.54045 -0.0370187 1.20842
LeftToes  -19.9313 1.70063e-006 7.6642e-008
60
root  -15.3637 34.5866 -16.5255 -171.012 -0.629074 179.913
RightUpLeg  -9.12745 -14.7988 -0.776235
RightLeg  6.42967 -1.17554 -0.0719979
RightFoot  4.22778 0.0064424 0.0571903
RightToes  -23.8354 -0.111275 -0.199671
Spine  -2.44966 -0.167121 0.237813
Spine1  -4.97854 -0.287068 0.994842
HEad  -47.0939 -5.82827 7.40931
LeftShoulder1  -1.94126e-019 -3.10601e-018 -2.51263e-017
LeftArm  -14.8951 26.736 -81.6483
LeftForeArm  32.3982 -15.3855 -2.47652
LeftHand  -0.366979 -0.685091 7.20618
RightShoulder  -4.96962e-017 0 -2.36833e-017
RightArm  -39.2557 -23.9145 74.5634
RightForeArm  59.7956 12.3578 1.43363
RightHand  -0.44091 -0.764187 -10.9747
LeftUpLeg  -7.35884 4.34736 2.75702
LeftLeg  6.29479 13.7359 0.619985
LeftFoot  4.53877 -0.0368836 1.20632
LeftToes  -20.0097 1.70063e-006 7.6642e-008
61
root  -15.3598 34.5874 -16.5293 -170.99 -0.628784 179.917
RightUpLeg  -9.12983 -14.7639 -0.762187
RightLeg  6.40164 -1.21211 -0.0654763
RightFoot  4.22819 0.00651082 0.0562126
RightToes  -23.8217 -0.111275 -0.199671
Spine  -2.43991 -0.178878 0.235765
Spine1  -4.95916 -0.307502 0.993025
HEad  -46.734 -5.75207 7.2755
LeftShoulder1  -1.94126e-019 -3.10601e-018 -2.51263e-017
LeftArm  -14.9236 26.7395 -81.6272
LeftForeArm  32.4156 -15.333 -2.46904
LeftHand  -0.36721 -0.640916 7.1794
RightShoulder  -4.96962e-017 0 -2.36833e-017
RightArm  -39.1586 -23.8717 74.6747
RightForeArm  59.642 12.4848 1.42067
RightHand  -0.441057 -0.763351 -10.9316
LeftUpLeg  -7.35733 4.36911 2.76522
LeftLeg  6.25917 13.7248 0.611026
LeftFoot  4.55064 -0.0368879 1.20639
LeftToes  -20.0265 1.70063e-006 7.6642e-008
62
root  -15.3577 34.5894 -16.531 -170.967 -0.638336 179.919
RightUpLeg  -9.13212 -14.7443 -0.751118
RightLeg  6.37155 -1.24833 -0.058748
RightFoot  4.22869 0.00658581 0.055141
RightToes  -23.7996 -0.111275 -0.199671
Spine  -2.42206 -0.190088 0.233186
Spine1  -4.92345 -0.327791 0.990974
HEad  -46.6557 -5.6372 7.23102
LeftShoulder1  -1.94126e-019 -3.10601e-018 -2.51263e-017
LeftArm  -14.9486 26.7246 -81.5952
LeftForeArm  32.4984 -15.3319 -2.46707
LeftHand  -0.368758 -0.718107 7.13031
RightShoulder  -4.96962e-017 0 -2.36833e-017
RightArm  -38.9327 -23.8476 74.7777
RightForeArm  59.3749 12.6147 1.40744
RightHand  -0.441244 -0.795178 -10.8786
LeftUpLeg  -7.35568 4.30876 2.77273
LeftLeg  6.21728 13.767 0.602892
LeftFoot  4.55075 -0.0371744 1.21084
LeftToes  -19.9828 1.70063e-006 7.6642e-008
63
root  -15.3571 34.5904 -16.532 -170.957 -0.636215 179.92
RightUpLeg  -9.13823 -14.7237 -0.746663
RightLeg  6.36404 -1.26275 -0.054886
RightFoot  4.23015 0.00666569 0.0539995
RightToes  -23.7925 -0.111275 -0.199671
Spine  -2.40374 -0.191171 0.231138
Spine1  -4.88691 -0.329451 0.989408
HEad  -46.8545 -5.51836 7.17774
LeftShoulder1  -1.94126e-019 -3.10601e-018 -2.51263e-017
LeftArm  -14.9245 26.7099 -81.5807
LeftForeArm  32.4852 -15.3959 -2.47446
LeftHand  -0.367964 -0.705308 7.17527
RightShoulder  -4.96962e-017 0 -2.36833e-017
RightArm  -38.8107 -23.8419 74.8318
RightForeArm  59.3426 12.6765 1.40026
RightHand  -0.438583 -0.702975 -10.9206
LeftUpLeg  -7.35409 4.27887 2.77239
LeftLeg  6.20765 13.8006 0.597631
LeftFoot  4.56228 -0.0375568 1.21678
LeftToes  -19.9644 1.70063e-006 7.6642e-008
64
root  -15.357 34.5913 -16.5341 -170.94 -0.60881 179.921
RightUpLeg  -9.15643 -14.7112 -0.743957
RightLeg  6.36261 -1.25335 -0.0542981
RightFoot  4.23374 0.0067488 0.052812
RightToes  -23.7934 -0.111275 -0.199671
Spine  -2.36722 -0.184326 0.230678
Spine1  -4.81381 -0.315701 0.990451
HEad  -47.4829 -5.29792 7.2208
LeftShoulder1  -1.94126e-019 -3.10601e-018 -2.51263e-017
LeftArm  -14.8457 26.6939 -81.5587
LeftForeArm  32.4259 -15.5566 -2.49374
LeftHand  -0.36811 -0.745258 7.19482
RightShoulder  -4.96962e-017 0 -2.36833e-017
RightArm  -38.5446 -23.8364 74.8823
RightForeArm  59.2286 12.7607 1.39093
RightHand  -0.438461 -0.712683 -10.8684
LeftUpLeg  -7.35535 4.30497 2.76837
LeftLeg  6.18183 13.8056 0.596081
LeftFoot  4.57746 -0.0378406 1.2212
LeftToes  -19.9592 1.70063e-006 7.6642e-008
65
root  -15.3574 34.5929 -16.5359 -170.91 -0.565353 179.921
RightUpLeg  -9.18481 -14.6913 -0.738474
RightLeg  6.34986 -1.22494 -0.0564551
RightFoot  4.23661 0.00683345 0.0516023
RightToes  -23.8335 -0.111275 -0.199671
Spine  -2.33295 -0.174014 0.233837
Spine1  -4.74482 -0.295622 0.997423
HEad  -48.5823 -4.92594 7.22493
LeftShoulder1  -1.94126e-019 -3.10601e-018 -2.51263e-017
LeftArm  -14.8114 26.6759 -81.5402
LeftForeArm  32.4429 -15.6937 -2.5122
LeftHand  -0.370075 -0.825552 7.14292
RightShoulder  -4.96962e-017 0 -2.36833e-017
RightArm  -38.3725 -23.818 74.9039
RightForeArm  59.1064 12.7629 1.3914
RightHand  -0.437151 -0.7289 -10.8465
LeftUpLeg  -7.3638 4.34123 2.76084
LeftLeg  6.15499 13.8256 0.590509
LeftFoot  4.59463 -0.0382403 1.22741
LeftToes  -19.9484 1.70063e-006 7.6642e-008
66
root  -15.3586 34.5937 -16.5397 -170.868 -0.521378 179.922
RightUpLeg  -9.23266 -14.6531 -0.7307
RightLeg  6.36323 -1.21855 -0.0558623
RightFoot  4.23947 0.00691799 0.0503944
RightToes  -23.8795 -0.111275 -0.199671
Spine  -2.29409 -0.168763 0.2406
Spine1  -4.6668 -0.286065 1.01001
HEad  -50.099 -4.44455 7.26054
LeftShoulder1  -1.94126e-019 -3.10601e-018 -2.51263e-017
LeftArm  -14.6999 26.6523 -81.5246
LeftForeArm  32.3384 -15.8659 -2.53842
LeftHand  -0.371087 -0.781393 7.10384
RightShoulder  -4.96962e-017 0 -2.36833e-017
RightArm  -38.3209 -23.7639 74.8984
RightForeArm  59.1225 12.6883 1.40019
RightHand  -0.432678 -0.786136 -10.9123
LeftUpLeg  -7.38827 4.37895 2.75496
LeftLeg  6.14906 13.823 0.586226
LeftFoot  4.5793 -0.037977 1.22332
LeftToes  -19.9614 1.70063e-006 7.6642e-008
67
root  -15.3619 34.594 -16.5471 -170.814 -0.495132 179.922
RightUpLeg  -9.2728 -14.6494 -0.724459
RightLeg  6.3504 -1.20896 -0.0551438
RightFoot  4.24179 0.00700072 0.0492121
RightToes  -23.8984 -0.111275 -0.199671
Spine  -2.26427 -0.167417 0.246282
Spine1  -4.60661 -0.284995 1.0213
HEad  -51.766 -3.98464 7.37425
LeftShoulder1  -1.94126e-019 -3.10601e-018 -2.51263e-017
LeftArm  -14.5868 26.6035 -81.5095
LeftForeArm  32.4113 -15.8962 -2.54537
LeftHand  -0.372296 -0.833568 7.08548
RightShoulder  -4.96962e-017 0 -2.36833e-017
RightArm  -38.2819 -23.7383 74.8813
RightForeArm  59.1796 12.5902 1.41127
RightHand  -0.429465 -0.845193 -10.9335
LeftUpLeg  -7.42532 4.44652 2.74549
LeftLeg  6.14664 13.7884 0.586957
LeftFoot  4.56442 -0.0375463 1.21662
LeftToes  -20.0294 1.70063e-006 7.6642e-008
68
root  -15.3656 34.5941 -16.5584 -170.752 -0.473587 179.923
RightUpLeg  -9.30891 -14.6544 -0.717154
RightLeg  6.32374 -1.17677 -0.0554222
RightFoot  4.24303 0.00707999 0.0480795
RightToes  -23.9131 -0.111275 -0.199671
Spine  -2.24527 -0.165284 0.249289
Spine1  -4.56798 -0.284123 1.02794
HEad  -53.3538 -3.54852 7.47438
LeftShoulder1  -1.94126e-019 -3.10601e-018 -2.51263e-017
LeftArm  -14.4622 26.5413 -81.4825
LeftForeArm  32.4655 -15.8521 -2.54259
LeftHand  -0.372595 -0.878385 7.11084
RightShoulder  -4.96962e-017 0 -2.36833e-017
RightArm  -38.2988 -23.7216 74.8612
RightForeArm  59.3097 12.4618 1.42492
RightHand  -0.425045 -0.893052 -10.9307
LeftUpLeg  -7.46408 4.48165 2.73315
LeftLeg  6.14617 13.7769 0.588325
LeftFoot  4.5362 -0.0370357 1.20868
LeftToes  -19.9794 1.70063e-006 7.6642e-008
69
root  -15.3696 34.5942 -16.5713 -170.687 -0.452103 179.924
RightUpLeg  -9.34329 -14.6393 -0.71275
RightLeg  6.29637 -1.17369 -0.0523975
RightFoot  4.24264 0.00715411 0.0470203
RightToes  -23.9097 -0.111275 -0.199671
Spine  -2.2365 -0.162355 0.250881
Spine1  -4.5499 -0.283166 1.03192
HEad  -54.7115 -3.20415 7.54769
LeftShoulder1  -1.94126e-019 -3.10601e-018 -2.51263e-017
LeftArm  -14.3663 26.4708 -81.464
LeftForeArm  32.4075 -15.8135 -2.54349
LeftHand  -0.373472 -0.816772 7.07655
RightShoulder  -4.96962e-017 0 -2.36833e-017
RightArm  -38.3255 -23.724 74.8565
RightForeArm  59.4088 12.3423 1.43714
RightHand  -0.421601 -0.928133 -10.9708
LeftUpLeg  -7.50384 4.50278 2.72137
LeftLeg  6.14169 13.7965 0.586115
LeftFoot  4.52045 -0.0368937 1.20648
LeftToes  -19.9473 1.70063e-006 7.6642e-008
